<?xml version="1.0" encoding="utf-8"?>
<!-- Generator: Adobe Illustrator 16.0.0, SVG Export Plug-In . SVG Version: 6.00 Build 0)  -->
<!DOCTYPE svg PUBLIC "-//W3C//DTD SVG 1.1//EN" "http://www.w3.org/Graphics/SVG/1.1/DTD/svg11.dtd">
<svg version="1.1" id="Layer_1" focusable="false" xmlns="http://www.w3.org/2000/svg" xmlns:xlink="http://www.w3.org/1999/xlink"
	 x="0px" y="0px" width="2834.65px" height="2834.649px" viewBox="0 0 2834.65 2834.649"
	 enable-background="new 0 0 2834.65 2834.649" xml:space="preserve">
<path fill="#FFFFFF" d="M1417.325,44.292c-758.49,0-1373.034,614.543-1373.034,1373.034s614.543,1373.033,1373.034,1373.033
	s1373.033-614.543,1373.033-1373.033S2175.815,44.292,1417.325,44.292z M1417.325,575.788c269.07,0,487.205,218.136,487.205,487.205
	c0,269.071-218.135,487.207-487.205,487.207S930.12,1332.064,930.12,1062.993C930.12,793.924,1148.255,575.788,1417.325,575.788z
	 M1417.325,2480.319c-324.988,0-616.204-147.27-811.086-377.584c104.084-195.99,307.825-331.078,545.338-331.078
	c13.287,0,26.574,2.215,39.309,6.09c71.973,23.252,147.269,38.201,226.439,38.201s155.02-14.949,226.439-38.201
	c12.734-3.875,26.021-6.09,39.309-6.09c237.513,0,441.254,135.088,545.338,331.078
	C2033.529,2333.049,1742.313,2480.319,1417.325,2480.319z"/>
</svg>
